<svg aria-hidden="true" style="position: absolute; width: 0; height: 0; overflow: hidden;" version="1.1" xmlns="http://www.w3.org/2000/svg" xmlns:xlink="http://www.w3.org/1999/xlink">
    <defs>
        <symbol id="icon-instagram" viewBox="0 0 32 32">
            <path d="M15.68 8.32c-1.456 0-2.879 0.432-4.089 1.24s-2.154 1.958-2.711 3.303c-0.557 1.345-0.703 2.825-0.419 4.252s0.985 2.739 2.014 3.768c1.029 1.029 2.341 1.73 3.768 2.014s2.908 0.138 4.252-0.419c1.345-0.557 2.494-1.5 3.303-2.711s1.24-2.633 1.24-4.089c0-1.952-0.775-3.824-2.156-5.204s-3.252-2.156-5.204-2.156zM15.68 21.12c-1.076 0-2.128-0.319-3.022-0.917s-1.592-1.447-2.004-2.441-0.519-2.088-0.31-3.143c0.21-1.055 0.728-2.025 1.489-2.785s1.73-1.279 2.785-1.489c1.055-0.21 2.149-0.102 3.143 0.31s1.844 1.109 2.441 2.004c0.598 0.895 0.917 1.946 0.917 3.022-0.004 1.442-0.579 2.823-1.598 3.842s-2.401 1.594-3.842 1.598zM22.72 0h-14.080c-2.291 0-4.489 0.91-6.109 2.531s-2.531 3.818-2.531 6.109v14.080c0 2.291 0.91 4.489 2.531 6.109s3.818 2.531 6.109 2.531h14.080c2.291 0 4.489-0.91 6.109-2.531s2.531-3.818 2.531-6.109v-14.080c0-2.291-0.91-4.489-2.531-6.109s-3.818-2.531-6.109-2.531zM29.44 22.72c0 1.782-0.708 3.491-1.968 4.752s-2.969 1.968-4.752 1.968h-14.080c-1.782 0-3.492-0.708-4.752-1.968s-1.968-2.969-1.968-4.752v-14.080c0-1.782 0.708-3.492 1.968-4.752s2.97-1.968 4.752-1.968h14.080c1.782 0 3.491 0.708 4.752 1.968s1.968 2.97 1.968 4.752v14.080zM25.6 7.36c0 0.316-0.094 0.626-0.27 0.889s-0.426 0.468-0.718 0.589c-0.292 0.121-0.614 0.153-0.925 0.091s-0.595-0.214-0.819-0.438-0.376-0.509-0.438-0.819c-0.062-0.31-0.030-0.632 0.091-0.924s0.326-0.542 0.589-0.718c0.263-0.176 0.573-0.27 0.889-0.27 0.424 0 0.831 0.169 1.131 0.469s0.469 0.707 0.469 1.131z"></path>
        </symbol>
        <symbol id="icon-facebook" viewBox="0 0 19 32">
            <path d="M18.004 0.238c-1.537-0.163-3.082-0.242-4.628-0.238-5.125 0-8.309 3.264-8.309 8.518v3.567h-4.305c-0.202 0-0.396 0.080-0.539 0.223s-0.223 0.337-0.223 0.539v5.867c0 0.202 0.080 0.396 0.223 0.539s0.337 0.223 0.539 0.223h4.305v11.764c0 0.202 0.080 0.396 0.223 0.539s0.337 0.223 0.539 0.223h6.062c0.202 0 0.396-0.080 0.539-0.223s0.223-0.337 0.223-0.539v-11.764h4.291c0.185 0 0.364-0.067 0.503-0.189s0.229-0.29 0.253-0.474l0.757-5.867c0.014-0.108 0.005-0.217-0.026-0.321s-0.085-0.2-0.156-0.281-0.16-0.147-0.258-0.192c-0.099-0.045-0.206-0.068-0.314-0.068h-5.048v-2.985c0-1.478 0.297-2.095 2.146-2.095h3.107c0.202 0 0.396-0.080 0.539-0.223s0.223-0.337 0.223-0.539v-5.25c0-0.185-0.067-0.364-0.189-0.503s-0.29-0.229-0.474-0.253zM17.143 5.48l-2.347 0.002c-3.287 0-3.668 2.066-3.668 3.619v3.749c0 0.202 0.080 0.395 0.223 0.538s0.336 0.223 0.538 0.224h4.946l-0.562 4.343h-4.383c-0.202 0-0.396 0.080-0.539 0.223s-0.223 0.337-0.223 0.539v11.761h-4.538v-11.761c0-0.202-0.080-0.396-0.223-0.539s-0.337-0.223-0.539-0.223h-4.303v-4.343h4.303c0.202 0 0.396-0.080 0.539-0.223s0.223-0.337 0.223-0.539v-4.331c0-4.379 2.537-6.994 6.786-6.994 1.537 0 2.926 0.084 3.767 0.157v3.799z"></path>
        </symbol>
        <symbol id="icon-call" viewBox="0 0 28 32">
            <path d="M25.766 22.83l-0.179-0.223c-1.416-1.791-2.6-2.722-3.616-2.845-0.878-0.12-1.727 0.487-2.63 1.112l-0.965 0.603c-0.116 0.058-0.23 0.105-0.337 0.136-0.564 0.16-1.989 0.253-2.795-0.484-0.939-0.859-2.395-2.431-3.528-3.804-1.082-1.422-2.271-3.195-2.892-4.311-0.524-0.946-0.085-2.268 0.208-2.758 0.058-0.096 0.133-0.191 0.217-0.285l0.851-0.786c0.012-0.012 0.018-0.028 0.029-0.039 0.008-0.008 0.022-0.005 0.032-0.012 0.768-0.648 1.562-1.316 1.671-2.173 0.128-1.007-0.498-2.37-1.917-4.159l-0.173-0.223c-0.878-1.126-2.206-2.828-4.114-2.548-0.75 0.111-1.42 0.367-2.111 0.801-0.007 0.004-0.011 0.012-0.017 0.017s-0.012 0.004-0.018 0.008l-0.962 0.713c-0.010 0.006-0.015 0.018-0.025 0.026-0.007 0.007-0.018 0.008-0.026 0.015-0.111 0.094-0.223 0.19-0.333 0.289-0.976 0.87-3.088 3.395-1.647 8.067 0.93 3.017 2.849 6.538 5.562 10.201l-0.026 0.022 1.496 1.864 0.012-0.010c2.941 3.479 5.935 6.169 8.678 7.797 1.831 1.087 3.43 1.447 4.746 1.447 1.731 0 2.971-0.622 3.594-1.027l0.391-0.262c0.044-0.030 0.076-0.073 0.107-0.111l0.852-0.641c0.010-0.008 0.015-0.019 0.025-0.028 0.004-0.004 0.011-0.003 0.017-0.007 0.606-0.553 1.025-1.133 1.317-1.82 0.756-1.76-0.597-3.446-1.492-4.563zM26.247 26.96c-0.227 0.534-0.559 0.988-1.038 1.429l-1.268 0.954c-1.148 0.746-3.602 1.668-7.167-0.449-2.743-1.628-5.763-4.381-8.734-7.961l-0.804-1.016c-2.798-3.711-4.766-7.264-5.695-10.276-1.207-3.916 0.314-6.016 1.332-6.923 0.103-0.094 0.206-0.18 0.308-0.267l0.004-0.004 0.924-0.684c0.562-0.355 1.082-0.553 1.681-0.644 1.279-0.193 2.319 1.156 3.083 2.136l0.179 0.227c1.586 2 1.738 2.951 1.689 3.339-0.055 0.431-0.71 0.983-1.288 1.469l-0.081 0.069c-0.003 0.003-0.004 0.007-0.007 0.010-0.004 0.003-0.008 0.004-0.012 0.007l-0.879 0.813c-0.005 0.005-0.008 0.012-0.014 0.019s-0.017 0.010-0.022 0.017c-0.136 0.153-0.253 0.306-0.348 0.464-0.494 0.827-0.961 2.537-0.224 3.859 0.643 1.156 1.866 2.982 2.991 4.458 1.175 1.426 2.674 3.044 3.646 3.932 0.728 0.665 1.741 0.888 2.618 0.888 0.469 0 0.9-0.065 1.226-0.157 0.172-0.050 0.35-0.121 0.533-0.211 0.011-0.005 0.017-0.015 0.028-0.022 0.005-0.003 0.014-0.001 0.019-0.006l1.021-0.639c0.033-0.022 0.055-0.051 0.083-0.078l0.012 0.014c0.629-0.436 1.346-0.948 1.795-0.874 0.398 0.048 1.301 0.431 2.889 2.436l0.183 0.23c0.773 0.965 1.833 2.286 1.339 3.441z"></path>
        </symbol>
        <symbol id="shampoo-icon" viewBox="0 0 32 32">
            <path d="M8.739 12.049h-8.862c-0.272 0-0.492 0.211-0.492 0.472v2.834c0 0.261 0.22 0.472 0.492 0.472h0.492v10.864c0 0.261 0.22 0.472 0.492 0.472h6.892c0.272 0 0.492-0.211 0.492-0.472v-10.864h0.492c0.272 0 0.492-0.211 0.492-0.472v-2.834c0-0.261-0.22-0.472-0.492-0.472zM3.323 21.023v-0.945h2.954v-0.945h-2.954v-0.945h3.938v6.14h-3.938v-2.362h0.985v-0.945h-0.985zM7.262 17.244h-4.431c-0.272 0-0.492 0.211-0.492 0.472v7.085c0 0.261 0.22 0.472 0.492 0.472h4.431v0.945h-5.908v-10.391h5.908v1.417zM8.246 14.883h-7.877v-1.889h7.877v1.889z"></path>
            <path d="M15.262 12.137v-3.453c0-0.269-0.22-0.486-0.492-0.486h-0.492v-2.431h0.985v-0.973h-5.415v0.973h3.446v2.431h-0.492c-0.272 0-0.492 0.217-0.492 0.486v3.453c-1.122 0.226-1.969 1.208-1.969 2.382v12.157c0 0.269 0.22 0.486 0.492 0.486h5.908c0.272 0 0.492-0.217 0.492-0.486v-12.157c0-1.174-0.847-2.156-1.969-2.382zM13.293 9.17h0.985v2.918h-0.985v-2.918zM12.8 13.061h1.969c0.814 0 1.477 0.655 1.477 1.459v0.486h-4.923v-0.486c0-0.804 0.663-1.459 1.477-1.459zM16.246 24.245h-4.923v-0.973h1.969v-0.973h-1.969v-6.322h4.923v8.267zM11.323 26.191v-0.973h4.923v0.973h-4.923z"></path>
            <path d="M27.846 11.444h-8.308c-0.255 0-0.462 0.213-0.462 0.476v14.767c0 0.263 0.206 0.476 0.462 0.476h8.308c0.255 0 0.462-0.213 0.462-0.476v-14.767c0-0.263-0.206-0.476-0.462-0.476zM27.385 26.211h-7.385v-13.814h7.385v13.814z"></path>
            <path d="M6.77 21.117h-1.231v0.605h1.231v-0.605z"></path>
            <path d="M15.385 22.326h-1.231v1.209h1.231v-1.209z"></path>
            <path d="M13.846 21.117c1.188 0 2.154-0.949 2.154-2.116s-0.966-2.116-2.154-2.116c-1.188 0-2.154 0.949-2.154 2.116s0.966 2.116 2.154 2.116zM13.846 17.943c0.594 0 1.077 0.475 1.077 1.058s-0.483 1.058-1.077 1.058c-0.594 0-1.077-0.475-1.077-1.058s0.483-1.058 1.077-1.058z"></path>
            <path d="M22.539 16.281h2.308c0.891 0 1.615-0.678 1.615-1.511s-0.725-1.511-1.615-1.511h-2.308c-0.891 0-1.615 0.678-1.615 1.511s0.725 1.511 1.615 1.511zM25.539 14.769c0 0.357-0.311 0.648-0.692 0.648h-0.692v-1.296h0.692c0.382 0 0.692 0.291 0.692 0.648zM22.539 14.121h0.692v1.296h-0.692c-0.382 0-0.692-0.291-0.692-0.648s0.311-0.648 0.692-0.648z"></path>
            <path d="M22.539 21.117h2.308c0.891 0 1.615-0.814 1.615-1.814s-0.725-1.814-1.615-1.814h-2.308c-0.891 0-1.615 0.814-1.615 1.814s0.725 1.814 1.615 1.814zM25.539 19.304c0 0.429-0.311 0.777-0.692 0.777h-0.692v-1.555h0.692c0.382 0 0.692 0.349 0.692 0.777zM22.539 18.526h0.692v1.555h-0.692c-0.382 0-0.692-0.349-0.692-0.777s0.311-0.777 0.692-0.777z"></path>
            <path d="M22.539 25.35h2.308c0.891 0 1.615-0.814 1.615-1.814s-0.725-1.814-1.615-1.814h-2.308c-0.891 0-1.615 0.814-1.615 1.814s0.725 1.814 1.615 1.814zM25.539 23.536c0 0.429-0.311 0.777-0.692 0.777h-0.692v-1.555h0.692c0.382 0 0.692 0.349 0.692 0.777zM22.539 22.758h0.692v1.555h-0.692c-0.382 0-0.692-0.349-0.692-0.777s0.311-0.777 0.692-0.777z"></path>
        </symbol>
        <symbol id="crown-icon" viewBox="0 0 38 32">
            <path d="M37.347 7.45c-0.337-0.306-0.745-0.502-1.178-0.566s-0.873 0.004-1.272 0.2l-8.417 4.107c-0.037 0.022-0.078 0.036-0.12 0.041s-0.085 0-0.125-0.014-0.078-0.036-0.11-0.066c-0.032-0.030-0.059-0.066-0.078-0.108l-4.917-9.717c-0.199-0.402-0.493-0.737-0.851-0.97s-0.766-0.357-1.182-0.357-0.824 0.123-1.182 0.357c-0.358 0.234-0.652 0.569-0.851 0.97l-4.917 9.717c-0.019 0.041-0.046 0.078-0.078 0.108s-0.070 0.052-0.11 0.066c-0.040 0.014-0.083 0.018-0.125 0.014s-0.083-0.019-0.12-0.041l-8.417-4.107c-0.398-0.198-0.838-0.27-1.271-0.207s-0.841 0.259-1.178 0.564c-0.337 0.306-0.589 0.709-0.728 1.164s-0.159 0.944-0.057 1.412l4.25 19.855c0.072 0.336 0.205 0.652 0.391 0.929s0.422 0.51 0.692 0.685c0.356 0.24 0.766 0.367 1.183 0.367 0.214-0.002 0.426-0.033 0.633-0.092 7.77-2.365 15.977-2.371 23.75-0.018 0.303 0.096 0.621 0.124 0.934 0.081s0.615-0.155 0.888-0.33c0.273-0.175 0.51-0.409 0.698-0.687s0.323-0.597 0.396-0.934l4.233-19.855c0.106-0.464 0.090-0.951-0.046-1.405s-0.386-0.857-0.721-1.161zM36.18 9.504l-4.25 19.855c-0.023 0.096-0.076 0.181-0.15 0.238-0.083 0.044-0.177 0.057-0.267 0.037-8.126-2.469-16.708-2.469-24.833 0-0.044 0.014-0.090 0.017-0.135 0.011s-0.089-0.023-0.128-0.049c-0.039-0.026-0.073-0.060-0.099-0.101s-0.045-0.087-0.055-0.136l-4.25-19.855c-0.010-0.055-0.008-0.111 0.004-0.165s0.035-0.105 0.067-0.149c0.032-0.044 0.072-0.079 0.117-0.104s0.095-0.039 0.146-0.040l0.133 0.037 8.433 4.125c0.532 0.263 1.134 0.297 1.687 0.093s1.016-0.63 1.296-1.193l4.917-9.717c0.026-0.058 0.067-0.107 0.117-0.141s0.108-0.052 0.167-0.052c0.059 0 0.117 0.018 0.167 0.052s0.090 0.083 0.117 0.141l4.917 9.717c0.28 0.563 0.743 0.989 1.296 1.193s1.156 0.171 1.688-0.093l8.433-4.125c0.057-0.028 0.12-0.037 0.182-0.028s0.12 0.038 0.168 0.083c0.049 0.043 0.086 0.1 0.106 0.165s0.024 0.135 0.011 0.202zM25.43 23.437c-0.028 0.271-0.146 0.521-0.33 0.703s-0.422 0.284-0.67 0.287h-0.1c-3.48-0.385-6.987-0.385-10.467 0-0.263 0.031-0.526-0.054-0.732-0.236s-0.338-0.447-0.368-0.736c-0.023-0.291 0.058-0.581 0.226-0.807s0.41-0.371 0.674-0.403c3.612-0.422 7.255-0.422 10.867 0 0.261 0.032 0.5 0.174 0.668 0.397s0.251 0.507 0.232 0.795z"></path>
        </symbol>
        <symbol id="flower-icon" viewBox="0 0 29 32">
            <path d="M14.347 0c-1.145 0-2.215 0.522-3.127 1.376s-1.692 2.044-2.343 3.485c-0.136 0.302-0.267 0.616-0.391 0.939-0.336-0.053-0.673-0.097-1.011-0.131-0.393-0.039-0.777-0.064-1.15-0.072-1.12-0.027-2.143 0.087-3.040 0.359-1.196 0.363-2.182 1.028-2.755 2.020s-0.656 2.179-0.372 3.396c0.284 1.217 0.924 2.488 1.847 3.772 0.194 0.269 0.401 0.54 0.619 0.81-0.214 0.264-0.42 0.533-0.618 0.809-0.923 1.284-1.563 2.555-1.847 3.772s-0.201 2.404 0.372 3.396c0.573 0.992 1.559 1.658 2.755 2.020s2.616 0.444 4.19 0.286c0.33-0.033 0.667-0.077 1.010-0.131 0.122 0.317 0.252 0.631 0.392 0.941 0.651 1.441 1.431 2.631 2.343 3.485s1.982 1.376 3.127 1.376c1.145 0 2.215-0.522 3.127-1.376s1.692-2.044 2.343-3.485c0.139-0.31 0.27-0.624 0.392-0.941 0.342 0.054 0.679 0.098 1.009 0.131 1.574 0.157 2.994 0.076 4.19-0.286s2.182-1.028 2.755-2.020c0.573-0.992 0.656-2.179 0.372-3.396s-0.924-2.488-1.847-3.772c-0.198-0.275-0.404-0.545-0.618-0.809 0.214-0.264 0.42-0.534 0.619-0.809 0.923-1.284 1.563-2.555 1.847-3.772s0.201-2.404-0.372-3.396c-0.573-0.992-1.559-1.658-2.755-2.020-0.897-0.272-1.92-0.385-3.039-0.359-0.373 0.009-0.757 0.033-1.15 0.072-0.33 0.033-0.667 0.077-1.010 0.131-0.122-0.317-0.252-0.63-0.391-0.939-0.651-1.441-1.431-2.631-2.343-3.485s-1.982-1.376-3.127-1.376l0 0zM14.347 1.274c0.764 0 1.513 0.336 2.256 1.032s1.452 1.749 2.053 3.080c0.098 0.217 0.191 0.436 0.279 0.657-1.46 0.325-3.007 0.823-4.588 1.488-1.58-0.665-3.127-1.163-4.587-1.488 0.090-0.226 0.183-0.446 0.279-0.658 0.601-1.331 1.31-2.384 2.053-3.080s1.492-1.031 2.256-1.031l-0 0zM5.921 6.869c0.123-0.001 0.248-0 0.375 0.002 0.338 0.008 0.69 0.029 1.053 0.066 0.232 0.023 0.47 0.053 0.711 0.088-0.449 1.427-0.791 3.015-1.005 4.717-1.367 1.036-2.572 2.127-3.583 3.229-0.148-0.187-0.292-0.378-0.431-0.571-0.852-1.185-1.409-2.326-1.641-3.318s-0.147-1.808 0.235-2.469c0.382-0.662 1.047-1.143 2.021-1.438 0.639-0.194 1.405-0.298 2.266-0.306l0 0zM22.773 6.869c0.861 0.008 1.626 0.112 2.266 0.306 0.974 0.295 1.639 0.776 2.021 1.438s0.466 1.478 0.235 2.469c-0.231 0.991-0.789 2.132-1.641 3.318-0.14 0.194-0.283 0.384-0.431 0.571-1.011-1.102-2.216-2.192-3.582-3.229-0.214-1.702-0.556-3.29-1.005-4.718 0.241-0.035 0.478-0.065 0.71-0.088 0.35-0.035 0.701-0.057 1.053-0.066 0.125-0.003 0.25-0.004 0.375-0.003v0zM19.369 7.254c0.339 1.053 0.619 2.214 0.829 3.457-0.676-0.457-1.369-0.89-2.076-1.298s-1.427-0.791-2.161-1.148c1.181-0.44 2.327-0.778 3.408-1.011v-0zM9.325 7.254c1.081 0.233 2.226 0.57 3.407 1.010-0.734 0.357-1.454 0.74-2.161 1.148s-1.399 0.84-2.075 1.297c0.209-1.242 0.49-2.404 0.829-3.456zM14.347 8.921c1.037 0.457 2.089 0.989 3.138 1.595s2.037 1.252 2.951 1.921c0.122 1.127 0.188 2.304 0.188 3.516s-0.066 2.388-0.188 3.514c-0.915 0.669-1.902 1.315-2.951 1.921s-2.102 1.138-3.139 1.595c-1.037-0.457-2.090-0.989-3.139-1.595s-2.036-1.251-2.95-1.92c-0.122-1.127-0.188-2.304-0.188-3.515s0.066-2.39 0.188-3.517c0.915-0.669 1.901-1.315 2.95-1.921s2.102-1.137 3.138-1.594v-0zM14.433 10.838l-3.648 2.251 3.648 2.251 3.648-2.251-3.648-2.251zM6.881 13.507c-0.057 0.814-0.086 1.63-0.086 2.447 0 0.832 0.029 1.648 0.086 2.445-0.972-0.803-1.837-1.626-2.579-2.446 0.742-0.82 1.607-1.643 2.579-2.446zM21.813 13.507c0.971 0.803 1.836 1.626 2.578 2.446-0.742 0.819-1.607 1.643-2.578 2.445 0.057-0.814 0.086-1.629 0.086-2.445 0-0.832-0.029-1.649-0.086-2.446h0zM9.963 14.080v4.445l3.831 2.364v-4.445l-3.831-2.364zM18.899 14.082l-3.83 2.364v4.443l3.83-2.364v-4.443h-0zM3.471 16.935c1.011 1.103 2.216 2.193 3.583 3.229 0.214 1.702 0.556 3.29 1.005 4.716-0.241 0.035-0.478 0.065-0.709 0.088-1.453 0.145-2.72 0.057-3.694-0.238s-1.639-0.776-2.021-1.438c-0.382-0.662-0.466-1.478-0.235-2.469s0.789-2.132 1.641-3.318c0.139-0.193 0.283-0.384 0.43-0.571zM25.223 16.935c0.15 0.191 0.295 0.381 0.43 0.57 0.852 1.185 1.409 2.326 1.641 3.317s0.147 1.808-0.234 2.469c-0.382 0.662-1.047 1.143-2.021 1.438s-2.241 0.383-3.693 0.238c-0.237-0.024-0.473-0.053-0.709-0.088 0.449-1.427 0.791-3.016 1.005-4.718 1.366-1.036 2.571-2.126 3.582-3.228l-0 0zM20.198 21.195c-0.209 1.243-0.49 2.404-0.829 3.457-1.081-0.233-2.227-0.571-3.408-1.011 0.734-0.357 1.455-0.741 2.161-1.149s1.399-0.841 2.075-1.297h-0zM8.496 21.196c0.676 0.456 1.368 0.889 2.074 1.297s1.428 0.791 2.161 1.149c-1.181 0.44-2.326 0.778-3.407 1.010-0.339-1.052-0.619-2.213-0.828-3.456zM14.385 21.254l0.046 0.029 0.046-0.029h-0.093zM14.347 24.374c1.581 0.665 3.128 1.163 4.588 1.488-0.088 0.222-0.181 0.442-0.279 0.659-0.601 1.33-1.31 2.384-2.053 3.080s-1.492 1.032-2.256 1.032c-0.764 0-1.513-0.336-2.256-1.032s-1.452-1.749-2.053-3.080c-0.098-0.218-0.191-0.438-0.279-0.659 1.46-0.325 3.007-0.823 4.587-1.488h-0z"></path>
        </symbol>
        <symbol id="icon-arrow" viewBox="0 0 38 32">
            <path d="M0.624 17.219c-0.833-0.833-0.833-2.184 0-3.017l13.576-13.576c0.833-0.833 2.184-0.833 3.017 0s0.833 2.184 0 3.017l-12.068 12.068 12.068 12.068c0.833 0.833 0.833 2.184 0 3.017s-2.184 0.833-3.017 0l-13.576-13.576zM37.892 17.844h-35.759v-4.267h35.759v4.267z"></path>
        </symbol>
        <symbol id="icon-menu" viewBox="0 0 32 32">
            <path d="M29.333 24.007c0 0.733-0.595 1.327-1.327 1.327h-10.68c-0.733 0-1.327-0.594-1.327-1.327s0.594-1.327 1.327-1.327h10.68c0.733 0 1.327 0.593 1.327 1.327zM29.333 16c0 0.733-0.595 1.327-1.327 1.327h-24.013c-0.733 0-1.327-0.594-1.327-1.327s0.594-1.327 1.327-1.327h24.013c0.733 0 1.327 0.595 1.327 1.327zM28.007 9.32c0.733 0 1.327-0.594 1.327-1.327s-0.594-1.327-1.327-1.327h-16.013c-0.733 0-1.327 0.594-1.327 1.327s0.594 1.327 1.327 1.327h16.013z"></path>
        </symbol>
    </defs>
</svg>
